<?xml version="1.0" encoding="utf-8"?>
<!-- Generated by IcoMoon.io -->
<!DOCTYPE svg PUBLIC "-//W3C//DTD SVG 1.1//EN" "http://www.w3.org/Graphics/SVG/1.1/DTD/svg11.dtd">
<svg version="1.1" xmlns="http://www.w3.org/2000/svg" xmlns:xlink="http://www.w3.org/1999/xlink" width="512" height="512" viewBox="0 0 512 512">
<g>
</g>
	<path d="M510.096 200.912c-4.432-12.784-15.808-22.144-29.504-24.176l-133.216-19.808-57.904-120.224c-6.096-12.624-19.136-20.704-33.472-20.704s-27.376 8.080-33.472 20.704l-57.904 120.224-133.232 19.808c-13.68 2.032-25.056 11.392-29.472 24.176-4.4 12.816-1.072 26.928 8.592 36.56l97.632 97.472-22.64 135.216c-2.304 13.616 3.6 27.28 15.168 35.248 6.352 4.368 13.824 6.592 21.296 6.592 6.144 0 12.304-1.504 17.888-4.496l116.144-62.528 116.16 62.528c5.584 2.992 11.744 4.496 17.872 4.496 7.472 0 14.944-2.224 21.312-6.592 11.568-7.968 17.44-21.632 15.152-35.248l-22.656-135.216 97.664-97.472c9.648-9.648 12.96-23.76 8.592-36.56zM377.408 309.808c-8.192 8.16-11.904 19.664-10.032 30.944l22.656 135.216-116.16-62.496c-5.568-3.008-11.712-4.496-17.888-4.496-6.144 0-12.304 1.504-17.872 4.496l-116.16 62.496 22.656-135.216c1.888-11.28-1.824-22.784-10.016-30.944l-97.632-97.472 133.216-19.84c12.176-1.808 22.656-9.424 27.888-20.288l57.936-120.192 57.92 120.208c5.248 10.864 15.712 18.464 27.872 20.288l133.248 19.84-97.632 97.456z" fill="#000000" />
</svg>
